<?xml version="1.0" encoding="UTF-8"?>
<svg width="24px" height="24px" viewBox="0 0 24 24" version="1.1" xmlns="http://www.w3.org/2000/svg" xmlns:xlink="http://www.w3.org/1999/xlink">
    <!-- Generator: Sketch 57.1 (83088) - https://sketch.com -->
    <title>agile</title>
    <desc>Created with Sketch.</desc>
    <g id="Support-|-Article" stroke="none" stroke-width="1" fill="none" fill-rule="evenodd">
        <g id="Artboard" transform="translate(-849.000000, -248.000000)">
            <g id="dropdown-copy-2" transform="translate(841.000000, 156.000000)">
                <g id="row" transform="translate(0.000000, 84.000000)">
                    <g id="agile" transform="translate(8.000000, 8.000000)">
                        <rect id="Rectangle" fill="#2474F0" x="0" y="0" width="24" height="24"></rect>
                        <g id="book-icons/agile" fill="#FFFFFF">
                            <g id="Group" transform="translate(4.000000, 6.000000)">
                                <polygon id="Path" fill-rule="nonzero" opacity="0.600000024" points="14.1666667 11.1934157 0 11.1934157 0 8.39506171 14.1666667 8.39506171 14.1666667 7.1707819 17 9.79423871 14.1666667 12.4176955"></polygon>
                                <path d="M4.66695119,5.0081088 L5.75901784,5.08353076 L2.91159499,7.69206493 L0.45945883,4.71752457 L1.82610622,4.81191005 C2.21247772,2.09249169 4.57757048,0 7.4375,0 C10.5671136,0 13.1041667,2.50573144 13.1041667,5.59670782 C13.1041667,8.68768422 10.5671136,11.1934157 7.4375,11.1934157 L0,11.1934157 L0,8.39506171 L7.4375,8.39506171 C9.00230681,8.39506171 10.2708333,7.14219602 10.2708333,5.59670782 C10.2708333,4.05121963 9.00230681,2.79835391 7.4375,2.79835391 C6.0771248,2.79835391 4.9406726,3.74524597 4.66695119,5.0081088 Z" id="Path" fill-rule="nonzero"></path>
                            </g>
                        </g>
                    </g>
                </g>
            </g>
        </g>
    </g>
</svg>