<?xml version="1.0" encoding="UTF-8"?>
<svg width="24px" height="24px" viewBox="0 0 24 24" version="1.1" xmlns="http://www.w3.org/2000/svg" xmlns:xlink="http://www.w3.org/1999/xlink">
    <!-- Generator: Sketch 56.2 (81672) - https://sketch.com -->
    <title>agile</title>
    <desc>Created with Sketch.</desc>
    <g id="Support-|-Article" stroke="none" stroke-width="1" fill="none" fill-rule="evenodd">
        <g id="Artboard" transform="translate(-163.000000, -200.000000)">
            <g id="agile" transform="translate(163.000000, 200.000000)">
                <rect id="Rectangle" fill="#2474F0" x="0" y="0" width="24" height="24"></rect>
                <g id="book-icons/agile" fill="#FFFFFF" fill-rule="nonzero">
                    <path d="M17.5726129,16.9070553 L19.3105093,16.9070553 L19.3105093,16.1666041 L21,17.8332176 L19.3105093,19.5 L19.3105093,18.7595488 L15.2033564,18.7595488 C16.1128427,18.3006768 16.9160933,17.668482 17.5726129,16.9070553 Z M11.0016194,7.14207537 C8.58609898,7.47945803 6.72457499,9.52889653 6.72457499,12.0003519 C6.72457499,13.6954865 7.60127671,15.1925218 8.92965159,16.0747621 L6.23600491,16.0747621 C5.3650719,14.940787 4.84574486,13.5290617 4.84574486,12.0003519 C4.84574486,8.53989203 7.49875353,5.67958642 10.9030087,5.28839934 L10.0108571,6.1669795 L11.0016194,7.14207537 Z M4.94044315,17.8332457 L4.00188483,16.9072242 L11.7025467,16.9072242 C14.4463698,16.9072242 16.6804613,14.706452 16.6804613,12.0005209 C16.6804613,9.57853398 14.8905607,7.56209328 12.5483201,7.16504994 L12.5483201,7.83379007 L10.8567733,6.16714843 L12.5482916,4.5 L12.5482916,5.29408668 C15.9311282,5.70624931 18.5591486,8.55512395 18.5591486,12.0003519 C18.5591486,15.7273281 15.4831961,18.759577 11.7025467,18.759577 L4,18.759577 L4.94044315,17.8332457 Z" id="Combined-Shape"></path>
                </g>
            </g>
        </g>
    </g>
</svg>