<?xml version="1.0" encoding="UTF-8"?>
<svg width="24px" height="24px" viewBox="0 0 24 24" version="1.1" xmlns="http://www.w3.org/2000/svg" xmlns:xlink="http://www.w3.org/1999/xlink">
    <!-- Generator: Sketch 57.1 (83088) - https://sketch.com -->
    <title>artifacts</title>
    <desc>Created with Sketch.</desc>
    <g id="Support-|-Article" stroke="none" stroke-width="1" fill="none" fill-rule="evenodd">
        <g id="Artboard" transform="translate(-1105.000000, -458.000000)">
            <g id="dropdown-copy-4" transform="translate(1097.000000, 78.000000)">
                <g id="row" transform="translate(0.000000, 372.000000)">
                    <g id="artifacts" transform="translate(8.000000, 8.000000)">
                        <rect id="Rectangle" fill="#5F68FC" x="0" y="0" width="24" height="24"></rect>
                        <g id="book-icons/artifacts" fill="#FFFFFF" fill-rule="nonzero">
                            <path d="M17.526,8.69151542 L12.3831429,6.09164542 C12.1422857,5.96945153 11.8577143,5.96945153 11.616,6.09164542 L6.47314286,8.69151542 C6.18342857,8.83884139 6,9.13869307 6,9.46714331 L6,15.5335067 C6,15.8619569 6.18342857,16.1618086 6.474,16.3091345 L11.6168571,18.9090045 C11.7368571,18.9696682 11.8688571,19 12,19 C12.1311429,19 12.2631429,18.9696682 12.3831429,18.9090045 L17.526,16.3091345 C17.8165714,16.1618086 18,15.8619569 18,15.5335067 L18,9.46714331 C18,9.13869307 17.8165714,8.83884139 17.526,8.69151542 Z M12,7.83615819 L15.2262857,9.46714331 L12,11.0981284 L8.77371429,9.46714331 L12,7.83615819 Z M7.71428571,10.8693399 L11.1428571,12.6025865 L11.1428571,16.7311801 L7.71428571,14.9979334 L7.71428571,10.8693399 Z M12.8571429,16.7311801 L12.8571429,12.6025865 L16.2857143,10.8693399 L16.2857143,14.9979334 L12.8571429,16.7311801 Z" id="Shape"></path>
                        </g>
                    </g>
                </g>
            </g>
        </g>
    </g>
</svg>