<?xml version="1.0" encoding="UTF-8"?>
<svg width="24px" height="24px" viewBox="0 0 24 24" version="1.1" xmlns="http://www.w3.org/2000/svg" xmlns:xlink="http://www.w3.org/1999/xlink">
    <title>best</title>
    <g id="Support-|-Article" stroke="none" stroke-width="1" fill="none" fill-rule="evenodd">
        <g id="Artboard" transform="translate(-1105.000000, -778.000000)">
            <g id="dropdown-copy-4" transform="translate(1097.000000, 78.000000)">
                <g id="row-copy-2" transform="translate(0.000000, 692.000000)">
                    <g id="best" transform="translate(8.000000, 8.000000)">
                        <rect id="Rectangle" fill="#FFA938" x="0" y="0" width="24" height="24"></rect>
                        <g id="book-icons/gold" fill="#FFFFFF" fill-rule="nonzero">
                            <path d="M12,4 C7.581722,4 4,7.581722 4,12 C4,16.418278 7.581722,20 12,20 C16.418278,20 20,16.418278 20,12 C20,9.87826808 19.1571453,7.84343678 17.6568542,6.34314575 C16.1565632,4.84285472 14.1217319,4 12,4 Z M14.629,15.618 L12,14.236 L9.371,15.618 L9.871,12.691 L7.747,10.618 L10.686,10.191 L12,7.528 L13.314,10.191 L16.253,10.618 L14.127,12.691 L14.629,15.618 Z" id="Shape"></path>
                        </g>
                    </g>
                </g>
            </g>
        </g>
    </g>
</svg>