<?xml version="1.0" encoding="UTF-8"?>
<svg width="24px" height="24px" viewBox="0 0 24 24" version="1.1" xmlns="http://www.w3.org/2000/svg" xmlns:xlink="http://www.w3.org/1999/xlink">
    <!-- Generator: Sketch 57.1 (83088) - https://sketch.com -->
    <title>book-icons/cd</title>
    <desc>Created with Sketch.</desc>
    <defs>
        <rect id="path-1" x="0" y="0" width="24" height="24"></rect>
        <filter x="-27.1%" y="-22.9%" width="154.2%" height="154.2%" filterUnits="objectBoundingBox" id="filter-2">
            <feOffset dx="0" dy="1" in="SourceAlpha" result="shadowOffsetOuter1"></feOffset>
            <feGaussianBlur stdDeviation="2" in="shadowOffsetOuter1" result="shadowBlurOuter1"></feGaussianBlur>
            <feColorMatrix values="0 0 0 0 0   0 0 0 0 0   0 0 0 0 0  0 0 0 0.08 0" type="matrix" in="shadowBlurOuter1"></feColorMatrix>
        </filter>
    </defs>
    <g id="Symbols" stroke="none" stroke-width="1" fill="none" fill-rule="evenodd">
        <g id="book-icons/cd">
            <g id="Rectangle">
                <use fill="black" fill-opacity="1" filter="url(#filter-2)" xlink:href="#path-1"></use>
                <use fill="#0084FF" fill-rule="evenodd" xlink:href="#path-1"></use>
            </g>
            <path d="M19,16.9485981 C19,14.732243 17.6994318,12.817757 15.8181818,11.9260514 L8.18181818,11.9260514 C6.30056818,12.817757 5,14.732243 5,16.9485981 L8.11221591,16.9485981 C8.06647727,17.0915888 8.04261364,17.2464953 8.04261364,17.4212617 C8.04261364,17.8601636 8.19375,18.2891355 8.46818182,18.6287383 C8.69289773,18.9067757 8.98920455,19.1172897 9.32528409,19.2364486 C9.78465909,20.3088785 10.8286932,21 12,21 C12.5786932,21 13.1394886,20.8292056 13.61875,20.5074766 C14.0880682,20.1936916 14.4519886,19.7547897 14.6727273,19.2364486 C15.0088068,19.1172897 15.3051136,18.9087617 15.5298295,18.6307243 C15.8042614,18.2891355 15.9553977,17.8601636 15.9553977,17.4232477 C15.9553977,17.2564252 15.9335227,17.0975467 15.89375,16.9505841 L19,16.9485981 Z M14.3088068,17.9058411 C14.2053977,17.9654206 14.0860795,17.9892523 13.96875,17.9733645 L13.5809659,17.9257009 L13.5252841,18.3109813 C13.4178977,19.0636682 12.7616477,19.6316589 12,19.6316589 C11.2383523,19.6316589 10.5821023,19.0636682 10.4747159,18.3109813 L10.4190341,17.923715 L10.03125,17.9733645 C10.0113636,17.9753505 9.98948864,17.9773364 9.965625,17.9773364 C9.86818182,17.9773364 9.77471591,17.9515187 9.69119318,17.9038551 C9.51818182,17.8045561 9.41079545,17.6198598 9.41079545,17.4192757 C9.41079545,17.2087617 9.528125,17.0339953 9.70113636,16.9466121 L14.3008523,16.9466121 C14.4758523,17.0359813 14.5911932,17.2107477 14.5911932,17.4192757 C14.5892045,17.6218458 14.4818182,17.808528 14.3088068,17.9058411 Z" id="Shape" fill="#FFFFFF" fill-rule="nonzero" opacity="0.600000024"></path>
            <path d="M12,4 C12.1789773,4 12.3599432,4.07546729 12.4872159,4.22640187 L12.4872159,4.22640187 L15.5178977,7.81507009 C15.7127841,8.04345794 15.8181818,8.33341121 15.8181818,8.63329439 L15.8181818,8.63329439 L15.8181818,11.9260514 C17.6994318,12.817757 19,14.732243 19,16.9485981 L19,16.9485981 L15.89375,16.9505841 C15.9117424,17.0170672 14.3116162,17.0522553 12.5579357,17.0576194 L12.2799762,17.0582187 L12.2799762,17.0582187 L12.0007457,17.0583236 C11.9075994,17.0582763 11.8144548,17.0581468 11.7215254,17.0579354 L11.4435964,17.0570554 L11.4435964,17.0570554 L11.1682398,17.0556848 C9.52637987,17.0459923 8.09261364,17.0098798 8.11221591,16.9485981 L8.11221591,16.9485981 L5,16.9485981 C5,14.732243 6.30056818,12.817757 8.18181818,11.9260514 L8.18181818,11.9260514 L8.18181818,8.63329439 C8.18181818,8.33341121 8.28920455,8.04345794 8.48210227,7.81507009 L8.48210227,7.81507009 L11.5127841,4.22640187 C11.6400568,4.07546729 11.8210227,4 12,4 Z M12,8 C11.4477153,8 11,8.44771525 11,9 L11,9 L11,11 C11,11.4200149 11.2589436,11.7795502 11.6258979,11.9276733 L12.3741021,11.9276733 C12.7410564,11.7795502 13,11.4200149 13,11 L13,11 L13,9 C13,8.44771525 12.5522847,8 12,8 Z" id="Combined-Shape" fill="#FFFFFF" fill-rule="nonzero"></path>
        </g>
    </g>
</svg>