<?xml version="1.0" encoding="UTF-8"?>
<svg width="24px" height="24px" viewBox="0 0 24 24" version="1.1" xmlns="http://www.w3.org/2000/svg" xmlns:xlink="http://www.w3.org/1999/xlink">
    <!-- Generator: Sketch 58 (84663) - https://sketch.com -->
    <title>ci</title>
    <desc>Created with Sketch.</desc>
    <g id="Support-|-Article" stroke="none" stroke-width="1" fill="none" fill-rule="evenodd">
        <g id="Artboard" transform="translate(-1105.000000, -338.000000)">
            <g id="dropdown-copy-4" transform="translate(1097.000000, 78.000000)">
                <g id="row" transform="translate(0.000000, 252.000000)">
                    <g id="ci" transform="translate(8.000000, 8.000000)">
                        <rect id="Rectangle" fill="#3D507A" x="0" y="0" width="24" height="24"></rect>
                        <g id="book-icons/ci" fill="#FFFFFF" fill-rule="nonzero">
                            <path d="M16.95,8 C19.185,8 21,9.76951674 21,12 C21,14.2007435 19.185,15.9925651 16.95,15.9925651 C15.8625,15.9925651 14.85,15.5762082 14.085,14.8252788 L12,12.9962825 L9.87749999,14.8624535 C9.14999999,15.5836431 8.13,16 7.05,16 C4.81499999,16 3,14.2007435 3,12 C3,9.79925652 4.81499999,8 7.05,8 C8.13,8 9.15000001,8.41635688 9.91500001,9.17472121 L12,11.0037175 L14.1225,9.13754647 C14.85,8.41635688 15.87,8 16.95,8 Z M8.85,13.7769517 L10.875,12 L8.88000001,10.2527881 C8.37000001,9.7472119 7.73250001,9.48698887 7.05,9.48698887 C5.64749999,9.48698887 4.49999999,10.6096654 4.49999999,12 C4.49999999,13.3903346 5.64749999,14.5130112 7.05,14.5130112 C7.73250001,14.5130112 8.36999999,14.2527881 8.85,13.7769517 Z M15.15,10.2230483 L13.125,12 L15.12,13.7472119 C15.63,14.2527881 16.275,14.5130112 16.95,14.5130112 C18.3525,14.5130112 19.5,13.3903346 19.5,12 C19.5,10.6096654 18.3525,9.48698887 16.95,9.48698887 C16.2675,9.48698887 15.63,9.7472119 15.15,10.2230483 L15.15,10.2230483 Z" id="Shape"></path>
                        </g>
                    </g>
                </g>
            </g>
        </g>
    </g>
</svg>