<?xml version="1.0" encoding="UTF-8"?>
<svg width="24px" height="24px" viewBox="0 0 24 24" version="1.1" xmlns="http://www.w3.org/2000/svg" xmlns:xlink="http://www.w3.org/1999/xlink">
    <title>code-scan</title>
    <g id="Support-|-Article" stroke="none" stroke-width="1" fill="none" fill-rule="evenodd">
        <g id="Artboard" transform="translate(-1105.000000, -778.000000)">
            <g id="dropdown-copy-4" transform="translate(1097.000000, 78.000000)">
                <g id="row" transform="translate(0.000000, 692.000000)">
                    <g id="code-scan" transform="translate(8.000000, 8.000000)">
                        <rect id="Rectangle" fill="#5F68FC" x="0" y="0" width="24" height="24"></rect>
                        <g id="Group" fill="#FFFFFF" fill-rule="nonzero">
                            <g id="形状结合-path">
                                <path d="M10.500406,4.64994476 L10.5008328,6.70679702 C8.19190202,7.35945095 6.5,9.48214303 6.5,12 C6.5,15.0375661 8.96243388,17.5 12,17.5 C15.0375661,17.5 17.5,15.0375661 17.5,12 C17.5,11.0261678 17.2469063,10.1114489 16.8029083,9.31803249 L18.2574187,7.8639355 C19.0426901,9.04958094 19.5,10.4713852 19.5,12 C19.5,16.1421356 16.1421356,19.5 12,19.5 C7.85786438,19.5 4.5,16.1421356 4.5,12 C4.5,8.37141968 7.07684326,5.34469335 10.500406,4.64994476 Z" opacity="0.88"></path>
                                <path d="M10.4999667,8.83683139 L10.5,12 L10.5068666,12.14446 C10.5795513,12.9051119 11.2203039,13.5 12,13.5 C12.3624369,13.5 12.6948508,13.3714568 12.9541393,13.1574729 L13.0606602,13.0606602 L15.297497,10.8239088 C15.4286057,11.1914776 15.5,11.5874013 15.5,12 C15.5,13.9329966 13.9329966,15.5 12,15.5 C10.0670034,15.5 8.5,13.9329966 8.5,12 C8.5,10.6038151 9.317511,9.39857016 10.4999667,8.83683139 Z" opacity="0.600000024"></path>
                                <path d="M12,4.5 C14.0685297,4.5 15.9414719,5.33740984 17.2983087,6.69171165 L12,11.969 L12,4.5 Z"></path>
                            </g>
                        </g>
                    </g>
                </g>
            </g>
        </g>
    </g>
</svg>