<?xml version="1.0" encoding="UTF-8"?>
<svg width="24px" height="24px" viewBox="0 0 24 24" version="1.1" xmlns="http://www.w3.org/2000/svg" xmlns:xlink="http://www.w3.org/1999/xlink">
    <!-- Generator: Sketch 57.1 (83088) - https://sketch.com -->
    <title>coding</title>
    <desc>Created with Sketch.</desc>
    <g id="Support-|-Article" stroke="none" stroke-width="1" fill="none" fill-rule="evenodd">
        <g id="Artboard" transform="translate(-849.000000, -288.000000)">
            <g id="dropdown-copy-2" transform="translate(841.000000, 156.000000)">
                <g id="row" transform="translate(0.000000, 124.000000)">
                    <g id="coding" transform="translate(8.000000, 8.000000)">
                        <rect id="Rectangle" fill="#272C47" x="0" y="0" width="24" height="24"></rect>
                        <g id="book-icons/coding" fill="#FFFFFF" fill-rule="nonzero">
                            <path d="M12.0000555,5 C12.0966847,6.04610493 12.8780393,6.94118479 13.9906625,7.40754459 C16.0528262,8.1045206 17.7214836,9.79714331 18.5235841,11.6241271 C18.7593329,11.1433173 19.1809071,10.8227387 19.6620565,10.8227387 C20.4010317,10.8227387 21,11.5783301 21,12.5103505 C21,13.4423709 20.4010317,14.1978458 19.6620565,14.1978458 C19.4372908,14.1978458 19.2257271,14.1276938 19.0397907,14.0041702 C18.9761108,17.0303815 15.8503596,18.9947561 12.0000555,19 C8.14975131,18.9947561 5.02388921,17.0303815 4.96032025,14.0041702 C4.77438382,14.1276938 4.56270917,14.1978458 4.33794353,14.1978458 C3.59907919,14.1978458 3,13.4423709 3,12.5103505 C3,11.5783301 3.59907919,10.8227387 4.33794353,10.8227387 C4.81909288,10.8227387 5.24077806,11.1433173 5.47652682,11.6241271 C6.2786273,9.79714331 7.94717379,8.1045206 10.0093375,7.40754459 C11.1220716,6.94118479 11.9034262,6.04610493 12.0000555,5 Z M14.3152747,11.0995014 C13.4106651,11.0995014 12.5925892,11.4465328 12.0000555,12.0062344 C11.4075218,11.4465328 10.5894459,11.0995014 9.68472533,11.0995014 C8.50964259,11.0995014 7.4795592,11.6840243 6.90200248,12.5615079 C6.66170516,12.9397698 6.50250541,13.5961927 6.44037868,14.0263112 L6.44037868,14.0263112 L6.43871457,14.0384305 C6.43294566,14.0793331 6.42839709,14.1203523 6.42440323,14.1614879 C6.42151878,14.1922523 6.4188562,14.2230167 6.41697021,14.2540141 L6.41697021,14.2540141 L6.41452952,14.2987623 C6.41242165,14.3439766 6.41086848,14.3894239 6.41086848,14.4353374 C6.41086848,16.6238024 8.91180223,18.1524651 12.0000555,18.1575925 C15.0881978,18.1524651 17.5891315,16.6238024 17.5891315,14.4353374 C17.5891315,14.3894239 17.5875784,14.3439766 17.5854705,14.2987623 L17.5854705,14.2987623 L17.5831407,14.2540141 C17.5811438,14.2230167 17.5784812,14.1922523 17.5755968,14.1614879 C17.5717138,14.1203523 17.5670543,14.0793331 17.5612854,14.0384305 L17.5612854,14.0384305 L17.5597323,14.0263112 C17.4974946,13.5961927 17.3384058,12.9397698 17.0979975,12.5615079 C16.5205517,11.6840243 15.4904684,11.0995014 14.3152747,11.0995014 Z M8.47272156,12.8291113 C8.63469482,12.8291113 8.76604848,12.9947028 8.76604848,13.1990994 C8.76604848,13.4033794 8.63469482,13.5690875 8.47272156,13.5690875 C8.31074829,13.5690875 8.17939463,13.4033794 8.17939463,13.1990994 C8.17939463,12.9947028 8.31074829,12.8291113 8.47272156,12.8291113 Z M15.4393026,12.8291113 C15.6012758,12.8291113 15.7326295,12.9947028 15.7326295,13.1990994 C15.7326295,13.4033794 15.6012758,13.5690875 15.4393026,13.5690875 C15.2773293,13.5690875 15.1459756,13.4033794 15.1459756,13.1990994 C15.1459756,12.9947028 15.2773293,12.8291113 15.4393026,12.8291113 Z M20.071871,12.620473 C20.0093005,12.3775044 19.7306178,12.2740243 19.4494943,12.3892741 C19.1683708,12.5044074 18.9911987,12.7948044 19.0537692,13.0377729 C19.1164506,13.2806249 19.3950225,13.3842216 19.6761459,13.2689718 C19.9572694,13.1537219 20.1344415,12.8634415 20.071871,12.620473 Z M4.5505057,12.3892741 C4.26938225,12.2740243 3.99081042,12.3775044 3.92823993,12.620473 C3.86566943,12.8634415 4.04284156,13.1537219 4.32396502,13.2689718 C4.60497753,13.3842216 4.8836603,13.2806249 4.94623079,13.0377729 C5.00880129,12.7948044 4.83162916,12.5044074 4.5505057,12.3892741 Z"></path>
                        </g>
                    </g>
                </g>
            </g>
        </g>
    </g>
</svg>