<?xml version="1.0" encoding="UTF-8"?>
<svg width="24px" height="24px" viewBox="0 0 24 24" version="1.1" xmlns="http://www.w3.org/2000/svg" xmlns:xlink="http://www.w3.org/1999/xlink">
    <title>compass</title>
    <g id="Support-|-Article" stroke="none" stroke-width="1" fill="none" fill-rule="evenodd">
        <g id="Artboard" transform="translate(-1361.000000, -890.000000)">
            <g id="dropdown-copy-5" transform="translate(1353.000000, 78.000000)">
                <g id="row" transform="translate(0.000000, 804.000000)">
                    <g id="compass" transform="translate(8.000000, 8.000000)">
                        <rect id="Rectangle" fill="#5F68FC" x="0" y="0" width="24" height="24"></rect>
                        <g id="Group" fill="#FFFFFF" fill-rule="nonzero">
                            <g>
                                <path d="M19.3706676,11.0716676 L14.7696676,9.2306676 L12.9286676,4.6286676 C12.7768196,4.24897844 12.4090951,4 12.0001676,4 C11.5912401,4 11.2235156,4.24897844 11.0716676,4.6286676 L9.2296676,9.2306676 L4.6286676,11.0716676 C4.24897844,11.2235156 4,11.5912401 4,12.0001676 C4,12.4090951 4.24897844,12.7768196 4.6286676,12.9286676 L9.2286676,14.7696676 L11.0696676,19.3696676 C11.2215156,19.7493568 11.5892401,19.9983352 11.9981676,19.9983352 C12.4070951,19.9983352 12.7748196,19.7493568 12.9266676,19.3696676 L14.7676676,14.7696676 L19.3676676,12.9286676 C19.7473568,12.7768196 19.9963352,12.4090951 19.9963352,12.0001676 C19.9963352,11.5912401 19.7473568,11.2235156 19.3676676,11.0716676 L19.3706676,11.0716676 Z M13.6286676,13.0716676 C13.3742359,13.1730817 13.1725379,13.3744182 13.0706676,13.6286676 L11.9996676,16.3086676 L10.9286676,13.6286676 C10.8267973,13.3744182 10.6250993,13.1730817 10.3706676,13.0716676 L7.6916676,12.0006676 L10.3706676,10.9296676 C10.6250993,10.8282535 10.8267973,10.626917 10.9286676,10.3726676 L11.9996676,7.6926676 L13.0706676,10.3726676 C13.1725379,10.626917 13.3742359,10.8282535 13.6286676,10.9296676 L16.3076676,12.0006676 L13.6286676,13.0716676 Z" id="Shape"></path>
                                <path d="M17.1556676,14.8926676 L17.9996676,18.0006676 L14.8916676,17.1566676 L15.5386676,15.5396676 L17.1556676,14.8926676 Z M6.8436676,14.8926676 L8.4606676,15.5396676 L9.1076676,17.1566676 L5.9996676,18.0006676 L6.8436676,14.8926676 L6.8436676,14.8926676 Z M17.9996676,6.0006676 L17.1556676,9.1086676 L15.5386676,8.4616676 L14.8916676,6.8446676 L17.9996676,6.0006676 Z M5.9996676,6.0006676 L9.1076676,6.8446676 L8.4606676,8.4616676 L6.8436676,9.1086676 L5.9996676,6.0006676 Z" id="Combined-Shape" opacity="0.5"></path>
                            </g>
                        </g>
                    </g>
                </g>
            </g>
        </g>
    </g>
</svg>