<?xml version="1.0" encoding="UTF-8"?>
<svg width="24px" height="24px" viewBox="0 0 24 24" version="1.1" xmlns="http://www.w3.org/2000/svg" xmlns:xlink="http://www.w3.org/1999/xlink">
    <!-- Generator: Sketch 57.1 (83088) - https://sketch.com -->
    <title>git</title>
    <desc>Created with Sketch.</desc>
    <g id="Support-|-Article" stroke="none" stroke-width="1" fill="none" fill-rule="evenodd">
        <g id="Artboard" transform="translate(-849.000000, -208.000000)">
            <g id="dropdown-copy-2" transform="translate(841.000000, 156.000000)">
                <g id="row" transform="translate(0.000000, 44.000000)">
                    <g id="git" transform="translate(8.000000, 8.000000)">
                        <rect id="Rectangle" fill="#24C2D0" x="0" y="0" width="24" height="24"></rect>
                        <g id="book-icons/git" fill="#FFFFFF" fill-rule="nonzero">
                            <path d="M19.6631579,11.2 L12.8,4.33684211 C12.5894737,4.12631579 12.2947368,4 12,4 C12,4 12,4 12,4 C11.7052632,4 11.4105263,4.12631579 11.2,4.33684211 L9.72631579,5.81052632 L11.4526316,7.53684211 C11.6210526,7.45263158 11.7894737,7.41052632 12,7.41052632 C12.7157895,7.41052632 13.2631579,7.95789474 13.2631579,8.67368421 C13.2631579,8.88421053 13.2210526,9.05263158 13.1368421,9.22105263 L14.8210526,10.9052632 C14.9894737,10.8210526 15.1578947,10.7789474 15.3684211,10.7789474 C16.0842105,10.7789474 16.6315789,11.3263158 16.6315789,12.0421053 C16.6315789,12.7578947 16.0842105,13.3052632 15.3684211,13.3052632 C14.6526316,13.3052632 14.1052632,12.7578947 14.1052632,12.0421053 C14.1052632,11.8315789 14.1473684,11.6631579 14.2315789,11.4947368 L12.5473684,9.81052632 C12.5052632,9.81052632 12.4631579,9.85263158 12.4210526,9.85263158 L12.4210526,14.2315789 C12.9263158,14.4 13.2631579,14.8631579 13.2631579,15.4105263 C13.2631579,16.1263158 12.7157895,16.6736842 12,16.6736842 C11.2842105,16.6736842 10.7368421,16.1263158 10.7368421,15.4105263 C10.7368421,14.8631579 11.0736842,14.4 11.5789474,14.2315789 L11.5789474,9.81052632 C11.0736842,9.64210526 10.7368421,9.17894737 10.7368421,8.63157895 C10.7368421,8.42105263 10.7789474,8.25263158 10.8631579,8.08421053 L9.13684211,6.35789474 L4.33684211,11.2 C4.12631579,11.4105263 4,11.7052632 4,12 C4,12.2947368 4.12631579,12.5894737 4.33684211,12.8 L11.2,19.6631579 C11.2,19.6631579 11.2,19.6631579 11.2,19.6631579 C11.4105263,19.8736842 11.7052632,20 12,20 C12.2947368,20 12.5894737,19.8736842 12.8,19.6631579 L19.6631579,12.8 C19.8736842,12.5894737 20,12.2947368 20,12 C20,11.7052632 19.8736842,11.4105263 19.6631579,11.2 Z" id="Path"></path>
                        </g>
                    </g>
                </g>
            </g>
        </g>
    </g>
</svg>