<?xml version="1.0" encoding="UTF-8"?>
<svg width="24px" height="24px" viewBox="0 0 24 24" version="1.1" xmlns="http://www.w3.org/2000/svg" xmlns:xlink="http://www.w3.org/1999/xlink">
    <!-- Generator: Sketch 56.2 (81672) - https://sketch.com -->
    <title>git</title>
    <desc>Created with Sketch.</desc>
    <g id="Support-|-Article" stroke="none" stroke-width="1" fill="none" fill-rule="evenodd">
        <g id="Artboard" transform="translate(-163.000000, -160.000000)">
            <g id="git" transform="translate(163.000000, 160.000000)">
                <rect id="Rectangle" fill="#24C2D0" x="0" y="0" width="24" height="24"></rect>
                <g id="book-icons/git" fill="#FFFFFF" fill-rule="nonzero">
                    <path d="M19.1842105,11.75 L12.75,5.31578947 C12.5526316,5.11842105 12.2763158,5 12,5 C12,5 12,5 12,5 C11.7236842,5 11.4473684,5.11842105 11.25,5.31578947 L9.86842105,6.69736842 L11.4868421,8.31578947 C11.6447368,8.23684211 11.8026316,8.19736842 12,8.19736842 C12.6710526,8.19736842 13.1842105,8.71052632 13.1842105,9.38157895 C13.1842105,9.57894737 13.1447368,9.73684211 13.0657895,9.89473684 L14.6447368,11.4736842 C14.8026316,11.3947368 14.9605263,11.3552632 15.1578947,11.3552632 C15.8289474,11.3552632 16.3421053,11.8684211 16.3421053,12.5394737 C16.3421053,13.2105263 15.8289474,13.7236842 15.1578947,13.7236842 C14.4868421,13.7236842 13.9736842,13.2105263 13.9736842,12.5394737 C13.9736842,12.3421053 14.0131579,12.1842105 14.0921053,12.0263158 L12.5131579,10.4473684 C12.4736842,10.4473684 12.4342105,10.4868421 12.3947368,10.4868421 L12.3947368,14.5921053 C12.8684211,14.75 13.1842105,15.1842105 13.1842105,15.6973684 C13.1842105,16.3684211 12.6710526,16.8815789 12,16.8815789 C11.3289474,16.8815789 10.8157895,16.3684211 10.8157895,15.6973684 C10.8157895,15.1842105 11.1315789,14.75 11.6052632,14.5921053 L11.6052632,10.4473684 C11.1315789,10.2894737 10.8157895,9.85526316 10.8157895,9.34210526 C10.8157895,9.14473684 10.8552632,8.98684211 10.9342105,8.82894737 L9.31578947,7.21052632 L4.81578947,11.75 C4.61842105,11.9473684 4.5,12.2236842 4.5,12.5 C4.5,12.7763158 4.61842105,13.0526316 4.81578947,13.25 L11.25,19.6842105 C11.25,19.6842105 11.25,19.6842105 11.25,19.6842105 C11.4473684,19.8815789 11.7236842,20 12,20 C12.2763158,20 12.5526316,19.8815789 12.75,19.6842105 L19.1842105,13.25 C19.3815789,13.0526316 19.5,12.7763158 19.5,12.5 C19.5,12.2236842 19.3815789,11.9473684 19.1842105,11.75 Z" id="Path"></path>
                </g>
            </g>
        </g>
    </g>
</svg>