<?xml version="1.0" encoding="UTF-8"?>
<svg width="24px" height="24px" viewBox="0 0 24 24" version="1.1" xmlns="http://www.w3.org/2000/svg" xmlns:xlink="http://www.w3.org/1999/xlink">
    <!-- Generator: Sketch 57.1 (83088) - https://sketch.com -->
    <title>members</title>
    <desc>Created with Sketch.</desc>
    <g id="Support-|-Article" stroke="none" stroke-width="1" fill="none" fill-rule="evenodd">
        <g id="Artboard" transform="translate(-1105.000000, -498.000000)">
            <g id="dropdown-copy-4" transform="translate(1097.000000, 78.000000)">
                <g id="row" transform="translate(0.000000, 412.000000)">
                    <g id="members" transform="translate(8.000000, 8.000000)">
                        <rect id="Rectangle" fill="#495E8E" x="0" y="0" width="24" height="24"></rect>
                        <g id="book-icons/member" fill="#FFFFFF">
                            <g id="users-mm" transform="translate(5.000000, 5.000000)">
                                <path d="M13.365625,9.006375 L11.451125,8.4595 C11.1356684,8.36930308 10.8971804,8.11020919 10.833375,7.788375 L10.716125,7.19775 C11.6498552,6.77101789 12.2491268,5.83912149 12.25,4.8125 L12.25,3.61025 C12.2720479,2.16387784 11.1496923,0.957384194 9.7055,0.875 C8.64444954,0.842984469 7.66855731,1.45317611 7.23275,2.421125 C7.65016682,3.02861869 7.87405486,3.74817165 7.875,4.48525 L7.875,5.6875 C7.87343177,6.00579925 7.82778989,6.32234783 7.739375,6.628125 C7.96620346,6.86607448 8.23570959,7.05929968 8.533875,7.19775 L8.416625,7.7875 C8.35281962,8.10933419 8.11433163,8.36842808 7.798875,8.458625 L7.06125,8.6695 L8.35625,9.039625 C9.10609375,9.25623443 9.62299268,9.94174935 9.625,10.72225 L9.625,12.6875 C9.62354994,12.8368799 9.59631652,12.9848876 9.5445,13.125 L13.5625,13.125 C13.8041246,13.125 14,12.9291246 14,12.6875 L14,9.84725 C13.9998265,9.45681786 13.7410038,9.11374381 13.365625,9.006375 Z" id="Path" fill-rule="nonzero" opacity="0.600000024"></path>
                                <path d="M8.115625,9.881375 L6.201125,9.3345 C5.88542703,9.24415964 5.64688512,8.98466929 5.583375,8.6625 L5.466125,8.071875 C6.39956749,7.64527481 6.99878484,6.71380459 6.99999986,5.6875 L6.99999986,4.48525 C7.02204787,3.03887784 5.89969229,1.83238419 4.4555,1.75 C3.74546612,1.7282153 3.05691768,1.99512974 2.54708407,2.48979365 C2.03725047,2.98445756 1.74966589,3.66463208 1.75,4.375 L1.75,5.6875 C1.75087317,6.71412149 2.35014477,7.64601789 3.283875,8.07275 L3.166625,8.6625 C3.10281962,8.98433419 2.86433163,9.24342808 2.548875,9.333625 L0.634375,9.8805 C0.258684354,9.98795799 -0.000217155013,10.3314935 -1.36500929e-07,10.72225 L-1.36500929e-07,12.6875 C-1.36500929e-07,12.9291246 0.195875422,13.125 0.4375,13.125 L8.3125,13.125 C8.55412458,13.125 8.75,12.9291246 8.75,12.6875 L8.75,10.72225 C8.74982655,10.3318179 8.49100377,9.98874381 8.115625,9.881375 Z" id="Path" fill-rule="nonzero"></path>
                            </g>
                        </g>
                    </g>
                </g>
            </g>
        </g>
    </g>
</svg>