<?xml version="1.0" encoding="UTF-8"?>
<svg width="24px" height="24px" viewBox="0 0 24 24" version="1.1" xmlns="http://www.w3.org/2000/svg" xmlns:xlink="http://www.w3.org/1999/xlink">
    <title>okr</title>
    <g id="Page-1" stroke="none" stroke-width="1" fill="none" fill-rule="evenodd">
        <g id="okr">
            <rect id="Rectangle" fill="#FFA938" x="0" y="0" width="24" height="24"></rect>
            <g id="Group" fill="#FFFFFF">
                <path d="M6.2834259,15 C7.01643693,15 7.52196177,14.7679558 7.9600833,14.3370166 C8.54685321,13.7598658 8.56697103,13.0040732 8.5668518,12.1890735 L8.56671311,12 C8.56671311,11.1132597 8.59198936,10.2845304 7.9600833,9.66298343 C7.52196177,9.2320442 7.01643693,9 6.2834259,9 C5.55041488,9 5.04489003,9.2320442 4.6067685,9.66298343 C3.97486245,10.2845304 4.00013869,11.1132597 4.00013869,12 C4.00013869,12.8867403 3.97486245,13.7154696 4.6067685,14.3370166 C5.04489003,14.7679558 5.55041488,15 6.2834259,15 Z M6.2834259,13.7071823 C6.01381265,13.7071823 5.8031773,13.5828729 5.69364692,13.441989 C5.56726571,13.2788329 5.48531539,13.1011093 5.47556528,12.1918237 L5.47458615,12 C5.47458615,10.9226519 5.55884029,10.7237569 5.69364692,10.5497238 C5.8031773,10.4088398 6.01381265,10.2928177 6.2834259,10.2928177 C6.55303915,10.2928177 6.7636745,10.4088398 6.87320489,10.5497238 C7.00801151,10.7237569 7.09226565,10.9226519 7.09226565,12 C7.09226565,13.0773481 7.00801151,13.2679558 6.87320489,13.441989 C6.7636745,13.5828729 6.55303915,13.7071823 6.2834259,13.7071823 Z M11.0437848,14.9502762 L11.0437848,13.1022099 L11.5493097,12.5303867 L12.9310776,14.9502762 L14.6498621,14.9502762 L12.5350831,11.4364641 L14.5824588,9.04972376 L12.7794201,9.04972376 L11.0437848,11.1381215 L11.0437848,9.04972376 L9.58618822,9.04972376 L9.58618822,14.9502762 L11.0437848,14.9502762 Z M16.7309393,14.9502762 L16.7309393,12.7541436 L17.2280388,12.7541436 L18.2896409,14.9502762 L20,14.9502762 L18.7024862,12.4889503 C19.1743094,12.2569061 19.6798343,11.7513812 19.6798343,10.9475138 C19.6798343,9.97790055 18.9636741,9.04972376 17.6324586,9.04972376 L15.2564919,9.04972376 L15.2564919,14.9502762 L16.7309393,14.9502762 Z M17.5650553,11.5441989 L16.7309393,11.5441989 L16.7309393,10.3508287 L17.5650553,10.3508287 C17.9694752,10.3508287 18.2053868,10.640884 18.2053868,10.9475138 C18.2053868,11.2541436 17.9694752,11.5441989 17.5650553,11.5441989 Z" id="OKR" fill-rule="nonzero"></path>
                <rect id="Rectangle" opacity="0.600000024" x="4" y="17" width="16" height="2"></rect>
                <rect id="Rectangle-Copy" opacity="0.600000024" x="4" y="5" width="16" height="2"></rect>
            </g>
        </g>
    </g>
</svg>