<?xml version="1.0" encoding="UTF-8"?>
<svg width="24px" height="24px" viewBox="0 0 24 24" version="1.1" xmlns="http://www.w3.org/2000/svg" xmlns:xlink="http://www.w3.org/1999/xlink">
    <title>program</title>
    <g id="Support-|-Article" stroke="none" stroke-width="1" fill="none" fill-rule="evenodd">
        <g id="Artboard" transform="translate(-1361.000000, -850.000000)">
            <g id="dropdown-copy-5" transform="translate(1353.000000, 78.000000)">
                <g id="row" transform="translate(0.000000, 764.000000)">
                    <g id="program" transform="translate(8.000000, 8.000000)">
                        <rect id="Rectangle" fill="#0084FF" x="0" y="0" width="24" height="24"></rect>
                        <g id="Group" fill="#FFFFFF">
                            <g id="编组" transform="translate(4.250000, 11.444086)">
                                <path d="M15.370052,4.15647122 C15.2850286,4.30373523 15.1627394,4.42602446 15.0154754,4.51104782 L8.23439388,8.42612772 C7.93466798,8.59917546 7.56538991,8.5991761 7.26566341,8.4261294 L0.484527526,4.5110495 C0.0211910103,4.24354278 -0.137560398,3.65107727 0.12994633,3.18774075 C0.17939906,3.10208587 0.241459065,3.02488007 0.313707801,2.95854189 L7.26566341,6.97303507 C7.5279241,7.12445094 7.84343521,7.14337743 8.1190081,7.02981471 L8.23439388,6.97303339 L15.1877219,2.95957285 C15.51418,3.25985004 15.6010819,3.75631776 15.370052,4.15647122 Z" id="路径" opacity="0.5"></path>
                                <path d="M15.370052,1.19792933 C15.2850286,1.34519334 15.1627394,1.46748257 15.0154754,1.55250593 L8.23439388,5.46758583 C7.93466798,5.64063357 7.56538991,5.64063421 7.26566341,5.46758751 L0.484527526,1.55250761 C0.0211910103,1.28500088 -0.137560398,0.692535373 0.12994633,0.229198857 C0.17939906,0.143543982 0.241459065,0.0663381809 0.313707801,0 L7.26566341,4.01449318 C7.5279241,4.16590905 7.84343521,4.18483554 8.1190081,4.07127282 L8.23439388,4.0144915 L15.1877219,0.00103095348 C15.51418,0.301308147 15.6010819,0.797775868 15.370052,1.19792933 Z" id="路径" opacity="0.800000012"></path>
                            </g>
                            <path d="M12.5001989,4.13397574 L19.5001728,8.17543385 C19.9784648,8.45157731 20.1423385,9.06316809 19.866195,9.54146009 C19.7784271,9.69347775 19.6521904,9.81971446 19.5001728,9.90748237 L12.5001989,13.9489405 C12.1907979,14.1275742 11.8095996,14.1275748 11.500198,13.9489422 L4.500168,9.9074841 C4.02187505,9.6313423 3.85799917,9.01975209 4.13414098,8.54145914 C4.22190953,8.38943912 4.34814799,8.26320066 4.500168,8.17543211 L11.500198,4.133974 C11.8095996,3.95534138 12.1907979,3.95534204 12.5001989,4.13397574 Z" id="Fill-4"></path>
                        </g>
                    </g>
                </g>
            </g>
        </g>
    </g>
</svg>