<?xml version="1.0" encoding="UTF-8"?>
<svg width="24px" height="24px" viewBox="0 0 24 24" version="1.1" xmlns="http://www.w3.org/2000/svg" xmlns:xlink="http://www.w3.org/1999/xlink">
    <!-- Generator: Sketch 57.1 (83088) - https://sketch.com -->
    <title>project</title>
    <desc>Created with Sketch.</desc>
    <g id="Support-|-Article" stroke="none" stroke-width="1" fill="none" fill-rule="evenodd">
        <g id="Artboard" transform="translate(-1105.000000, -298.000000)">
            <g id="dropdown-copy-4" transform="translate(1097.000000, 78.000000)">
                <g id="row" transform="translate(0.000000, 212.000000)">
                    <g id="project" transform="translate(8.000000, 8.000000)">
                        <rect id="Rectangle" fill="#FFA938" x="0" y="0" width="24" height="24"></rect>
                        <g id="book-icons/project" fill="#FFFFFF">
                            <g id="folder-16" transform="translate(5.000000, 5.000000)">
                                <path d="M13.125,5.995 L0.875,5.995 C0.35,5.995 0,6.345 0,6.87 L0,13.125 C0,13.65 0.35,14 0.875,14 L13.125,14 C13.65,14 14,13.65 14,13.125 L14,6.87 C14,6.345 13.65,5.995 13.125,5.995 Z" id="Path" fill-rule="nonzero"></path>
                                <path d="M12.25,1.75 L6.475,1.75 L4.9875,0.2625 C4.8125,0.0875 4.6375,0 4.375,0 L1.75,0 C1.225,0 0.875,0.35 0.875,0.875 L0.875,4 L13.125,4 L13.125,2.625 C13.125,2.1 12.775,1.75 12.25,1.75 Z" id="Path" fill-rule="nonzero" opacity="0.600000024"></path>
                            </g>
                        </g>
                    </g>
                </g>
            </g>
        </g>
    </g>
</svg>