<?xml version="1.0" encoding="UTF-8"?>
<svg width="24px" height="24px" viewBox="0 0 24 24" version="1.1" xmlns="http://www.w3.org/2000/svg" xmlns:xlink="http://www.w3.org/1999/xlink">
    <!-- Generator: Sketch 57.1 (83088) - https://sketch.com -->
    <title>quick-started</title>
    <desc>Created with Sketch.</desc>
    <g id="Support-|-Article" stroke="none" stroke-width="1" fill="none" fill-rule="evenodd">
        <g id="Artboard" transform="translate(-849.000000, -168.000000)">
            <g id="dropdown-copy-2" transform="translate(841.000000, 156.000000)">
                <g id="row" transform="translate(0.000000, 4.000000)">
                    <g id="quick-started" transform="translate(8.000000, 8.000000)">
                        <rect id="Rectangle" fill="#FFA938" x="0" y="0" width="24" height="24"></rect>
                        <g id="book-icons/quick-started" fill="#FFFFFF" fill-rule="nonzero">
                            <path d="M7.2,17.25 C7.2,16.928 7.4688,16.6666667 7.8,16.6666667 L16.8,16.6666667 C17.463,16.6666667 18,16.1445833 18,15.5 L18,6.75 C18,5.78341667 17.1942,5 16.2,5 L12,5 L12,9.66666667 L10.2,8.5 L8.4,9.66666667 L8.4,5 L7.8,5 C6.8058,5 6,5.78341667 6,6.75 L6,17.25 C6,18.2165833 6.8058,19 7.8,19 L17.4,19 C17.7312,19 18,18.7386667 18,18.4166667 C18,18.0946667 17.7312,17.8333333 17.4,17.8333333 L7.8,17.8333333 C7.4688,17.8333333 7.2,17.572 7.2,17.25 Z" id="Path"></path>
                        </g>
                    </g>
                </g>
            </g>
        </g>
    </g>
</svg>