<?xml version="1.0" encoding="UTF-8"?>
<svg width="24px" height="24px" viewBox="0 0 24 24" version="1.1" xmlns="http://www.w3.org/2000/svg" xmlns:xlink="http://www.w3.org/1999/xlink">
    <!-- Generator: Sketch 57.1 (83088) - https://sketch.com -->
    <title>webhook</title>
    <desc>Created with Sketch.</desc>
    <g id="Support-|-Article" stroke="none" stroke-width="1" fill="none" fill-rule="evenodd">
        <g id="Artboard" transform="translate(-1105.000000, -418.000000)">
            <g id="dropdown-copy-4" transform="translate(1097.000000, 78.000000)">
                <g id="row" transform="translate(0.000000, 332.000000)">
                    <g id="webhook" transform="translate(8.000000, 8.000000)">
                        <rect id="Rectangle" fill="#5FC0FC" x="0" y="0" width="24" height="24"></rect>
                        <g id="book-icons/api" fill="#FFFFFF" fill-rule="nonzero">
                            <path d="M11.9987443,5 C9.79554136,5 7.99811641,6.81442308 7.99811641,9.03846154 C7.99811641,10.2465385 8.58963782,11.2717308 9.42691208,12.0130769 L8.23015283,14.2486538 C8.15333938,14.2370197 8.0757892,14.2310424 7.99811641,14.2307692 C7.05796886,14.2307692 6.28356161,15.0125 6.28356161,15.9615385 C6.28356161,16.9105769 7.05796886,17.6923077 7.99811641,17.6923077 C8.93826396,17.6923077 9.71267121,16.9105769 9.71267121,15.9615385 C9.71267121,15.5017308 9.52521322,15.0828846 9.23030979,14.7713462 L10.8557077,11.7251923 L10.427069,11.4367308 C9.65666242,10.9198077 9.14115294,10.0457692 9.14115294,9.03846154 C9.14115294,7.43865385 10.4139241,6.15384615 11.9987443,6.15384615 C13.5835644,6.15384615 14.8563356,7.43865385 14.8563356,9.03846154 C14.8563356,9.37653846 14.8003268,9.69442308 14.695739,9.99384615 L15.7673357,10.3907692 C15.9208772,9.95675305 15.9993721,9.49932272 15.9993721,9.03846154 C15.9993721,6.81442308 14.2019472,5 11.9987443,5 L11.9987443,5 Z M11.9987443,7.30769231 C11.0585967,7.30769231 10.2841895,8.08942308 10.2841895,9.03846154 C10.2841895,9.9875 11.0585967,10.7692308 11.9987443,10.7692308 C12.0787568,10.7692308 12.1530542,10.7623077 12.2307807,10.7513462 L13.8024559,13.2753846 L14.0882151,13.7438462 L14.5705765,13.4553846 C15.0052554,13.2037772 15.4983155,13.0731746 15.9993721,13.0769231 C17.5841923,13.0769231 18.8569635,14.3617308 18.8569635,15.9615385 C18.8569635,17.5613462 17.5841923,18.8461538 15.9993721,18.8461538 C15.1878566,18.8505123 14.413644,18.50251 13.8738957,17.8907692 L13.0166183,18.6476923 C13.7752394,19.5059714 14.8598958,19.9977281 15.9993721,20 C18.2025751,20 20,18.1855769 20,15.9615385 C20,13.7375 18.2025751,11.9230769 15.9993721,11.9230769 C15.4724323,11.9230769 15.0146462,12.1325 14.5528594,12.32 L13.2486547,10.2101923 C13.5344139,9.90153846 13.7132991,9.48903846 13.7132991,9.03846154 C13.7132991,8.08942308 12.9388918,7.30769231 11.9987443,7.30769231 Z M11.9987443,8.46153846 C12.3205091,8.46153846 12.5702625,8.71423077 12.5702625,9.03846154 C12.5702625,9.36326923 12.3199375,9.61538462 11.9987443,9.61538462 C11.6769795,9.61538462 11.427226,9.36269231 11.427226,9.03846154 C11.427226,8.71365385 11.677551,8.46153846 11.9987443,8.46153846 Z M7.33744129,11.9773077 C6.87965516,12.0557692 6.42186903,12.2161538 5.99780248,12.4642308 C4.09121754,13.5748077 3.4328285,16.0561538 4.53300116,17.9807692 C5.63374534,19.9053846 8.08955933,20.57 9.99843034,19.4594231 C11.0900302,18.8213462 11.6792656,17.7101923 11.8558647,16.5384615 L14.3922628,16.5384615 C14.6305859,17.2053846 15.260399,17.6923077 15.9993721,17.6923077 C16.9395197,17.6923077 17.7139269,16.9105769 17.7139269,15.9615385 C17.7139269,15.0125 16.9395197,14.2307692 15.9993721,14.2307692 C15.260399,14.2307692 14.6305859,14.7176923 14.3916913,15.3846154 L10.8557077,15.3846154 L10.8557077,15.9615385 C10.8557077,16.9578846 10.3470565,17.9311538 9.42691208,18.4676923 C8.76875036,18.8514705 7.98631997,18.9549859 7.25241571,18.7553778 C6.51851145,18.5557697 5.89351075,18.0694597 5.51544106,17.4038462 C5.04661034,16.584892 5.00493533,15.5860484 5.40388783,14.7301995 C5.80284032,13.8743506 6.59180955,13.2700685 7.51575499,13.1126923 L7.33744129,11.9773077 Z M7.99811641,15.3846154 C8.31988119,15.3846154 8.56963468,15.6373077 8.56963468,15.9615385 C8.56963468,16.2863462 8.31930968,16.5384615 7.99811641,16.5384615 C7.67635163,16.5384615 7.42659814,16.2857692 7.42659814,15.9615385 C7.42659814,15.6367308 7.67692314,15.3846154 7.99811641,15.3846154 Z M15.9993721,15.3846154 C16.3211369,15.3846154 16.5708904,15.6373077 16.5708904,15.9615385 C16.5708904,16.2863462 16.3205654,16.5384615 15.9993721,16.5384615 C15.6776074,16.5384615 15.4278539,16.2857692 15.4278539,15.9615385 C15.4278539,15.6367308 15.6781789,15.3846154 15.9993721,15.3846154 Z" id="surface1"></path>
                        </g>
                    </g>
                </g>
            </g>
        </g>
    </g>
</svg>