<?xml version="1.0" encoding="UTF-8"?>
<svg width="24px" height="24px" viewBox="0 0 24 24" version="1.1" xmlns="http://www.w3.org/2000/svg" xmlns:xlink="http://www.w3.org/1999/xlink">
    <!-- Generator: Sketch 57.1 (83088) - https://sketch.com -->
    <title>wiki</title>
    <desc>Created with Sketch.</desc>
    <g id="Support-|-Article" stroke="none" stroke-width="1" fill="none" fill-rule="evenodd">
        <g id="Artboard" transform="translate(-1105.000000, -538.000000)">
            <g id="dropdown-copy-4" transform="translate(1097.000000, 78.000000)">
                <g id="row" transform="translate(0.000000, 452.000000)">
                    <g id="wiki" transform="translate(8.000000, 8.000000)">
                        <rect id="Rectangle" fill="#495E8E" x="0" y="0" width="24" height="24"></rect>
                        <g id="book-icons/wiki" fill="#FFFFFF" fill-rule="nonzero">
                            <path d="M17.1428571,5 L6.85714286,5 C6.34285714,5 6,5.35 6,5.875 L6,18.125 C6,18.65 6.34285714,19 6.85714286,19 L17.1428571,19 C17.6571429,19 18,18.65 18,18.125 L18,5.875 C18,5.35 17.6571429,5 17.1428571,5 Z M12,16.375 L8.57142857,16.375 L8.57142857,14.625 L12,14.625 L12,16.375 Z M15.4285714,12.875 L8.57142857,12.875 L8.57142857,11.125 L15.4285714,11.125 L15.4285714,12.875 Z M15.4285714,9.375 L8.57142857,9.375 L8.57142857,7.625 L15.4285714,7.625 L15.4285714,9.375 Z" id="Shape"></path>
                        </g>
                    </g>
                </g>
            </g>
        </g>
    </g>
</svg>