<svg width="124px" height="26px" viewBox="0 0 124 26" version="1.1" xmlns="http://www.w3.org/2000/svg" xmlns:xlink="http://www.w3.org/1999/xlink">
                            <g id="Support" stroke="none" stroke-width="1" fill="none" fill-rule="evenodd" opacity="0.977725074">
                                <g id="Desktop-HD" transform="translate(-168.000000, -35.000000)" fill="#FFFFFF">
                                    <g id="header-dark">
                                        <g id="top-nav" transform="translate(168.000000, 32.000000)">
                                            <g id="coding-logo" transform="translate(0.000000, 3.000000)">
                                                <g id="Slogan" transform="translate(40.710526, 17.875000)">
                                                    <path d="M3.15914761,1.76058678 C3.13761477,1.65529752 3.09734836,1.5568843 3.0385637,1.46556198 C2.97977905,1.37402479 2.90656739,1.29452066 2.81828275,1.22683471 C2.73021343,1.15914876 2.62879375,1.1058595 2.51423904,1.06718182 C2.39968433,1.02850413 2.27673181,1.00916529 2.14538148,1.00916529 C1.95933774,1.00916529 1.79052027,1.04247107 1.63849842,1.10908264 C1.4866919,1.17569421 1.35749486,1.27410744 1.25069197,1.40432231 C1.14410441,1.53432231 1.06163363,1.69655372 1.00392562,1.89101653 C0.946217604,2.08590909 0.91714827,2.31195868 0.91714827,2.57002479 C0.91714827,2.82787603 0.946217604,3.05521488 1.00392562,3.25204132 C1.06163363,3.44865289 1.14410441,3.61389256 1.25069197,3.74690083 C1.35749486,3.88033884 1.48583058,3.98154545 1.63569915,4.05009091 C1.78556772,4.11906612 1.95244723,4.15344628 2.13655302,4.15344628 C2.41475732,4.15344628 2.64386674,4.0851157 2.82409661,3.94866942 C3.00432649,3.81200826 3.11608193,3.61260331 3.15914761,3.35023967 L3.40289936,3.35023967 C3.37942857,3.51827273 3.33141033,3.66804132 3.25905999,3.80019008 C3.18649432,3.93233884 3.0954104,4.04364463 2.98580824,4.13389256 C2.87599076,4.22435537 2.74980831,4.2931157 2.60683025,4.34038843 C2.46385219,4.38787603 2.30903107,4.41129752 2.14258221,4.41129752 C1.91519542,4.41129752 1.71106409,4.36789256 1.52997291,4.28086777 C1.34866639,4.1936281 1.19449125,4.07050413 1.06723217,3.91149587 C0.939757752,3.7524876 0.841783328,3.55931405 0.773308896,3.33261983 C0.704834464,3.10592562 0.670381919,2.85172727 0.670381919,2.57002479 C0.670381919,2.29068595 0.704834464,2.03885124 0.773308896,1.81538017 C0.841783328,1.59190909 0.940188409,1.4008843 1.06873947,1.24295041 C1.19685987,1.08480165 1.35168099,0.963396694 1.53277218,0.878520661 C1.71407869,0.793644628 1.91713338,0.75131405 2.14258221,0.75131405 C2.29718801,0.75131405 2.44468797,0.775809917 2.58486676,0.825231405 C2.72461489,0.874652893 2.85058201,0.944057851 2.96233745,1.0332314 C3.07387756,1.12261983 3.16797607,1.2287686 3.24441766,1.35275207 C3.32064391,1.47630579 3.3736147,1.61210744 3.40289936,1.76058678 L3.15914761,1.76058678 L3.15914761,1.76058678 Z" id="Fill-1"></path>
                                                    <polygon id="Fill-3" points="7.82919003 4.3468562 5.93408475 4.3468562 5.93408475 0.815368595 6.16922336 0.815368595 6.16922336 4.08900496 7.82919003 4.08900496"></polygon>
                                                    <path d="M11.6294134,4.15338182 C11.8135191,4.15338182 11.9834133,4.11835702 12.139311,4.04873719 C12.2949935,3.9786876 12.4295737,3.87597686 12.5432671,3.74060496 C12.6567452,3.60501818 12.7450298,3.43913388 12.8076904,3.24252231 C12.8703509,3.04569587 12.9015736,2.82158017 12.9015736,2.56996033 C12.9015736,2.31619174 12.869705,2.09250579 12.8061831,1.89911736 C12.7424459,1.70551405 12.6543766,1.54285289 12.5417598,1.41048926 C12.4291431,1.2783405 12.2958548,1.17842314 12.1421103,1.11073719 C11.9883658,1.04283636 11.8204097,1.00910083 11.6382418,1.00910083 C11.4521981,1.00910083 11.2812273,1.04348099 11.1255449,1.11224132 C10.9698625,1.18100165 10.8350669,1.28177851 10.7215888,1.41392727 C10.6078954,1.54607603 10.5191801,1.70895207 10.4556582,1.9023405 C10.391921,2.0959438 10.3600524,2.3183405 10.3600524,2.56996033 C10.3600524,2.82158017 10.391275,3.04569587 10.4541509,3.24252231 C10.5168115,3.43913388 10.6044502,3.60501818 10.7170669,3.74060496 C10.8296837,3.87597686 10.9638333,3.9786876 11.1195157,4.04873719 C11.2754135,4.11835702 11.4453076,4.15338182 11.6294134,4.15338182 M11.632428,0.751249587 C11.8516323,0.751249587 12.0544716,0.794009917 12.2405154,0.880175207 C12.4265591,0.96612562 12.5867634,1.08860496 12.720913,1.2478281 C12.8550626,1.40683636 12.9599276,1.59807603 13.0352925,1.82176198 C13.1106574,2.04544793 13.1485552,2.29491901 13.1485552,2.56996033 C13.1485552,2.84285289 13.1113034,3.09232397 13.0367998,3.3179438 C12.9622962,3.54377851 12.8580772,3.73781157 12.7239276,3.90004298 C12.5895627,4.06248926 12.4300044,4.18840661 12.2450373,4.27736529 C12.0598548,4.36675372 11.8557235,4.41123306 11.632428,4.41123306 C11.4091324,4.41123306 11.2043551,4.36675372 11.0183113,4.27736529 C10.8320523,4.18840661 10.6720633,4.06291901 10.5379137,3.90176198 C10.4037641,3.74060496 10.2993298,3.54721653 10.2250415,3.32138182 C10.1505379,3.09554711 10.1132861,2.84500165 10.1132861,2.56996033 C10.1132861,2.29277025 10.1509685,2.04222479 10.2263335,1.81853884 C10.3016984,1.59506777 10.4072093,1.40425785 10.5422202,1.24610909 C10.6774465,1.08817521 10.8376508,0.96612562 11.0226179,0.880175207 C11.2078003,0.794009917 11.410855,0.751249587 11.632428,0.751249587" id="Fill-5"></path>
                                                    <path d="M16.8605801,4.41127603 C16.6685071,4.41127603 16.5046422,4.3891438 16.3685547,4.34530909 C16.2322518,4.3012595 16.1192044,4.24152397 16.0291971,4.16610248 C15.9389745,4.09111074 15.8674855,4.00301157 15.81473,3.90180496 C15.7617592,3.80059835 15.7214928,3.69316033 15.6941461,3.57949091 C15.6667994,3.46539174 15.6495731,3.34720992 15.6426826,3.22473058 C15.6360074,3.10203636 15.6323468,2.98278017 15.6323468,2.86674711 L15.6323468,0.815540496 L15.8674855,0.815540496 L15.8674855,2.85707769 C15.8674855,3.1258876 15.889449,3.34441653 15.9335913,3.51309421 C15.9777336,3.6817719 16.0423321,3.81370579 16.1276022,3.90825124 C16.2126569,4.00301157 16.3166605,4.0672595 16.4389671,4.10185455 C16.5612736,4.13623471 16.701883,4.15342479 16.8605801,4.15342479 C17.0212151,4.15342479 17.1637625,4.13623471 17.2880069,4.10185455 C17.4124668,4.0672595 17.5162551,4.00236694 17.5995871,3.90653223 C17.6827039,3.81112727 17.7460105,3.67940826 17.7890761,3.51159008 C17.8321418,3.34398678 17.8536747,3.1258876 17.8536747,2.85707769 L17.8536747,0.815540496 L18.0888133,0.815540496 L18.0888133,2.86674711 C18.0888133,3.10955702 18.0700797,3.32679669 18.0330432,3.51825124 C17.9957914,3.70949091 17.9311929,3.87107769 17.8390323,4.00344132 C17.7468718,4.13559008 17.6215506,4.23679669 17.4628536,4.3066314 C17.3043719,4.37646612 17.1034705,4.41127603 16.8605801,4.41127603" id="Fill-7"></path>
                                                    <path d="M23.0791352,2.55378017 C23.0791352,2.32171405 23.058033,2.1141438 23.0160439,1.93149917 C22.9738396,1.74885455 22.8997666,1.5932843 22.7940404,1.46564793 C22.6883141,1.33758182 22.5468434,1.24024298 22.3696281,1.17341653 C22.1921975,1.10701983 21.9684713,1.07349917 21.6980188,1.07349917 L20.9665482,1.07349917 L20.9665482,4.08906942 L21.6980188,4.08906942 C21.9665333,4.08906942 22.1893982,4.05447438 22.3666135,3.98571405 C22.5438288,3.91695372 22.6852995,3.81639174 22.7912411,3.68424298 C22.8969673,3.55187934 22.971471,3.39115207 23.0145366,3.20206116 C23.057387,3.01297025 23.0791352,2.79680496 23.0791352,2.55378017 M23.3289161,2.55378017 C23.3289161,3.74913554 22.7871498,4.34692066 21.704048,4.34692066 L20.7314096,4.34692066 L20.7314096,0.818871074 L21.704048,0.818871074 C22.2466756,0.818871074 22.6530003,0.962408264 22.9234527,1.24948264 C23.1936899,1.53655702 23.3289161,1.97125124 23.3289161,2.55378017" id="Fill-9"></path>
                                                    <path d="M32.630328,2.55378017 C32.630328,2.32171405 32.6092258,2.1141438 32.5672367,1.93149917 C32.5252477,1.74885455 32.4511747,1.5932843 32.3456638,1.46564793 C32.2399376,1.33758182 32.0982515,1.24024298 31.9210362,1.17341653 C31.7438209,1.10701983 31.5198794,1.07349917 31.2496422,1.07349917 L30.5179563,1.07349917 L30.5179563,4.08906942 L31.2496422,4.08906942 C31.5179414,4.08906942 31.7408063,4.05447438 31.9180216,3.98571405 C32.0954522,3.91695372 32.236923,3.81639174 32.3426492,3.68424298 C32.4481601,3.55187934 32.5226638,3.39115207 32.5659448,3.20206116 C32.6087951,3.01297025 32.630328,2.79680496 32.630328,2.55378017 M32.8801089,2.55378017 C32.8801089,3.74913554 32.338558,4.34692066 31.2554561,4.34692066 L30.283033,4.34692066 L30.283033,0.818871074 L31.2554561,0.818871074 C31.7980837,0.818871074 32.2044084,0.962408264 32.4746455,1.24948264 C32.745098,1.53655702 32.8801089,1.97125124 32.8801089,2.55378017" id="Fill-11"></path>
                                                    <polygon id="Fill-13" points="37.7149422 4.3468562 35.3906874 4.3468562 35.3906874 0.815368595 37.635486 0.815368595 37.635486 1.07364959 35.625826 1.07364959 35.625826 2.37966612 37.5090882 2.37966612 37.5090882 2.63773223 35.625826 2.63773223 35.625826 4.08900496 37.7149422 4.08900496"></polygon>
                                                    <polygon id="Fill-15" points="42.7520334 0.815454545 41.4915009 4.34694215 41.1887492 4.34694215 39.928432 0.815454545 40.190056 0.815454545 41.3416323 4.02441322 42.493424 0.815454545"></polygon>
                                                    <polygon id="Fill-17" points="47.4192335 4.3468562 45.0949787 4.3468562 45.0949787 0.815368595 47.3397773 0.815368595 47.3397773 1.07364959 45.3301173 1.07364959 45.3301173 2.37966612 47.2133795 2.37966612 47.2133795 2.63773223 45.3301173 2.63773223 45.3301173 4.08900496 47.4192335 4.08900496"></polygon>
                                                    <polygon id="Fill-19" points="51.8479789 4.3468562 49.9528736 4.3468562 49.9528736 0.815368595 50.1880122 0.815368595 50.1880122 4.08900496 51.8479789 4.08900496"></polygon>
                                                    <path d="M55.648396,4.15338182 C55.8322865,4.15338182 56.0023959,4.11835702 56.1580783,4.04873719 C56.3137608,3.9786876 56.4485563,3.87597686 56.5620344,3.74060496 C56.6757278,3.60501818 56.7637971,3.43913388 56.826673,3.24252231 C56.8893336,3.04569587 56.9205562,2.82158017 56.9205562,2.56996033 C56.9205562,2.31619174 56.8886876,2.09250579 56.8251657,1.89911736 C56.7614285,1.70551405 56.6733592,1.54285289 56.5605271,1.41048926 C56.4479104,1.2783405 56.3148374,1.17842314 56.1610929,1.11073719 C56.0071331,1.04283636 55.8393923,1.00910083 55.6570091,1.00910083 C55.4709654,1.00910083 55.30021,1.04348099 55.1443122,1.11224132 C54.9888451,1.18100165 54.8540495,1.28177851 54.7403561,1.41392727 C54.6268781,1.54607603 54.5381627,1.70895207 54.4744255,1.9023405 C54.4109037,2.0959438 54.3788197,2.3183405 54.3788197,2.56996033 C54.3788197,2.82158017 54.4102577,3.04569587 54.4729182,3.24252231 C54.5355788,3.43913388 54.6232175,3.60501818 54.7360496,3.74060496 C54.8486663,3.87597686 54.9828159,3.9786876 55.1384983,4.04873719 C55.2941808,4.11835702 55.4642902,4.15338182 55.648396,4.15338182 M55.6511953,0.751249587 C55.8706149,0.751249587 56.0734543,0.794009917 56.259498,0.880175207 C56.4455417,0.96612562 56.6055308,1.08860496 56.7396803,1.2478281 C56.8738299,1.40683636 56.9789102,1.59807603 57.0540598,1.82176198 C57.1296401,2.04544793 57.1673226,2.29491901 57.1673226,2.56996033 C57.1673226,2.84285289 57.1300707,3.09232397 57.0555671,3.3179438 C56.9810635,3.54377851 56.8768445,3.73781157 56.7426949,3.90004298 C56.6085454,4.06248926 56.448987,4.18840661 56.2638046,4.27736529 C56.0788375,4.36675372 55.8744908,4.41123306 55.6511953,4.41123306 C55.428115,4.41123306 55.2231224,4.36675372 55.0370787,4.27736529 C54.8510349,4.18840661 54.6910459,4.06291901 54.5568963,3.90176198 C54.4225314,3.74060496 54.3180971,3.54721653 54.2440241,3.32138182 C54.1693052,3.09554711 54.1322687,2.84500165 54.1322687,2.56996033 C54.1322687,2.29277025 54.1699512,2.04222479 54.2453161,1.81853884 C54.3206811,1.59506777 54.4259767,1.40425785 54.5612029,1.24610909 C54.6962138,1.08817521 54.8564181,0.96612562 55.0416006,0.880175207 C55.2265677,0.794009917 55.4298377,0.751249587 55.6511953,0.751249587" id="Fill-21"></path>
                                                    <path d="M59.8864035,2.59909752 L60.8590419,2.59909752 C61.0233375,2.59909752 61.1635163,2.58190744 61.2791476,2.54752727 C61.394779,2.51314711 61.4890928,2.46243636 61.5625198,2.39582479 C61.6361621,2.32921322 61.6893482,2.2469157 61.7227241,2.14914711 C61.7561,2.05137851 61.7726803,1.93792397 61.7726803,1.80878347 C61.7726803,1.65192397 61.7479176,1.52514711 61.697746,1.42823802 C61.6480052,1.33175868 61.5801767,1.25698182 61.495122,1.20412231 C61.409852,1.15169256 61.3114469,1.11666777 61.1999068,1.09947769 C61.0881513,1.08207273 60.970582,1.07347769 60.8471988,1.07347769 L59.8864035,1.07347769 L59.8864035,2.59909752 Z M59.6512649,0.81541157 L60.8207135,0.81541157 C60.9772572,0.81541157 61.1284177,0.829808264 61.2731184,0.857527273 C61.4180344,0.885461157 61.5459395,0.936601653 61.6566183,1.01051901 C61.7672971,1.08486612 61.8555818,1.1854281 61.9210416,1.31241983 C61.9867168,1.43919669 62.0194467,1.60035372 62.0194467,1.79589091 C62.0194467,2.1420562 61.919965,2.40570909 61.7212168,2.58599008 C61.5224687,2.76648595 61.2319907,2.85694876 60.8502134,2.85694876 L59.8864035,2.85694876 L59.8864035,4.34689917 L59.6512649,4.34689917 L59.6512649,0.81541157 Z" id="Fill-23"></path>
                                                    <polygon id="Fill-25" points="67.497552 4.3468562 67.2626287 4.3468562 67.2626287 1.23802975 66.1048079 4.3468562 65.8582569 4.3468562 64.7032353 1.23802975 64.7032353 4.3468562 64.468312 4.3468562 64.468312 0.815368595 64.8091769 0.815368595 65.9814247 4.02432727 67.162501 0.815368595 67.497552 0.815368595"></polygon>
                                                    <polygon id="Fill-27" points="72.4440115 4.3468562 70.1197567 4.3468562 70.1197567 0.815368595 72.3645553 0.815368595 72.3645553 1.07364959 70.3548953 1.07364959 70.3548953 2.37966612 72.2381575 2.37966612 72.2381575 2.63773223 70.3548953 2.63773223 70.3548953 4.08900496 72.4440115 4.08900496"></polygon>
                                                    <polygon id="Fill-29" points="77.4489326 4.3468562 77.140367 4.3468562 75.1776486 1.12178182 75.1776486 4.3468562 74.94251 4.3468562 74.94251 0.815368595 75.265718 0.815368595 77.213794 4.03399669 77.213794 0.815368595 77.4489326 0.815368595"></polygon>
                                                    <polygon id="Fill-31" points="82.2835075 1.07356364 81.1579859 1.07356364 81.1579859 4.34677025 80.9230626 4.34677025 80.9230626 1.07356364 79.8095995 1.07356364 79.8095995 0.815497521 82.2835075 0.815497521"></polygon>
                                                </g>
                                                <g id="Coding" transform="translate(40.710526, 2.437500)">
                                                    <path d="M10.486321,11.3848091 L10.4268904,11.4378835 C10.4184925,11.4454041 9.5629928,12.1929579 7.66659555,12.1929579 C4.93041752,12.1929579 2.61908244,9.66923884 2.61908244,6.68203223 C2.61908244,3.69482562 4.93041752,1.17110661 7.66659555,1.17110661 C9.0474966,1.17110661 10.1831386,1.66983388 11.1383354,2.69565207 L11.4987951,3.08242893 L11.4987951,0.516809091 L11.359693,0.467817355 C11.3172733,0.453205785 10.2927408,0.105106612 7.66659555,0.105106612 C3.44099096,0.105106612 0.00305766333,3.05535455 0.00305766333,6.68203223 C0.00305766333,10.6159826 3.08289982,13.2589579 7.66659555,13.2589579 C10.3556167,13.2589579 11.4178317,11.773305 11.4617587,11.7099165 L11.6880688,11.3841645 L10.486321,11.3848091 Z" id="Fill-33"></path>
                                                    <polygon id="Fill-35" points="55.1989195 13.2588934 56.9174555 13.2588934 56.9174555 4.78826529 55.1989195 3.02520744"></polygon>
                                                    <path d="M26.561706,6.68209669 C26.561706,9.72087355 24.6633708,12.1928074 22.3298569,12.1928074 C19.9965583,12.1928074 18.0980078,9.72087355 18.0980078,6.68209669 C18.0980078,3.64331983 19.9965583,1.17117107 22.3298569,1.17117107 C24.6633708,1.17117107 26.561706,3.64331983 26.561706,6.68209669 M22.3298569,0.105171074 C18.5540734,0.105171074 15.4821984,3.05541901 15.4821984,6.68209669 C15.4821984,10.3085595 18.5540734,13.2588074 22.3298569,13.2588074 C26.1056405,13.2588074 29.1775155,10.3085595 29.1775155,6.68209669 C29.1775155,3.05541901 26.1056405,0.105171074 22.3298569,0.105171074" id="Fill-37"></path>
                                                    <path d="M36.3010743,0.0556421488 C35.7821329,0.0556421488 35.2653447,0.0724024793 34.7647062,0.105493388 C32.9171885,0.227757851 31.7882216,0.394286777 31.7770246,0.396005785 L31.5998093,0.422435537 L31.5998093,1.37326198 L31.8149224,1.3659562 C31.8327946,1.36531157 33.620451,1.30471653 34.4688449,1.30471653 C35.3159469,1.30471653 36.6615341,1.36531157 36.6781144,1.3659562 C39.9756535,1.46608843 42.0003865,4.52979091 42.0003865,6.68198926 C42.0003865,9.72076612 40.1020513,12.1929149 37.7681067,12.1929149 L35.776965,12.1980719 L35.776965,3.08023719 L33.1609402,3.08023719 L33.1609402,13.2589149 L37.7685374,13.2589149 C41.544321,13.2589149 44.6159806,10.3084521 44.6159806,6.68198926 C44.6159806,3.05574132 41.5451823,0.105708264 37.7877016,0.105708264 C37.7620776,0.103559504 37.1856434,0.0556421488 36.3010743,0.0556421488 Z" id="Fill-39"></path>
                                                    <path d="M80.0865979,6.47454793 L80.0865979,11.8956554 C79.6044776,12.0282339 78.4462261,12.1928289 77.9376204,12.1928289 C75.2014424,12.1928289 72.889892,9.66910992 72.889892,6.68211818 C72.889892,3.69469669 75.2014424,1.17097769 77.9376204,1.17097769 C79.3185215,1.17097769 80.4541635,1.66991983 81.4093603,2.69552314 L81.7696047,3.08251488 L81.7696047,0.516680165 L81.6307179,0.467903306 C81.5882982,0.453291736 80.5637657,0.104977686 77.9376204,0.104977686 C73.7120159,0.104977686 70.2742979,3.0554405 70.2742979,6.68211818 C70.2742979,10.6158537 73.3537094,13.2588289 77.9376204,13.2588289 C82.4022396,13.2588289 82.690995,11.1594901 82.7011154,11.0701017 L82.702192,6.47454793 L80.0865979,6.47454793 Z" id="Fill-41"></path>
                                                    <polygon id="Fill-43" points="64.5856875 9.08937438 57.4014707 0.104977686 55.1988764 0.104977686 55.1988764 1.42431653 64.7749612 13.0942339 64.7749612 13.2588289 66.2908732 13.2588289 66.2908732 0.104977686 64.5856875 0.104977686"></polygon>
                                                    <polygon id="Fill-45" points="48.5997284 2.59145868 51.2153225 2.59145868 51.2153225 1.83767355 48.5997284 1.83767355"></polygon>
                                                    <polygon id="Fill-47" points="48.5997284 0.62835124 51.2153225 0.62835124 51.2153225 0.105128099 48.5997284 0.105128099"></polygon>
                                                    <polygon id="Fill-48" points="48.5997284 1.54264876 51.2153225 1.54264876 51.2153225 0.890070248 48.5997284 0.890070248"></polygon>
                                                    <polygon id="Fill-49" points="48.5997284 13.2589793 51.2153225 13.2589793 51.2153225 2.91355785 48.5997284 2.91355785"></polygon>
                                                </g>
                                                <g id="monkey">
                                                    <path d="M10.6220856,14.436124 C10.3077061,14.436124 10.0527573,14.7414628 10.0527573,15.1183554 C10.0527573,15.4950331 10.3077061,15.8005868 10.6220856,15.8005868 C10.936465,15.8005868 11.1914139,15.4950331 11.1914139,15.1183554 C11.1914139,14.7414628 10.936465,14.436124 10.6220856,14.436124" id="Fill-50"></path>
                                                    <path d="M24.1437619,14.436124 C23.8293824,14.436124 23.5744336,14.7414628 23.5744336,15.1183554 C23.5744336,15.4950331 23.8293824,15.8005868 24.1437619,15.8005868 C24.4581413,15.8005868 24.7130902,15.4950331 24.7130902,15.1183554 C24.7130902,14.7414628 24.4581413,14.436124 24.1437619,14.436124" id="Fill-51"></path>
                                                    <path d="M32.3671967,15.247195 C31.8215545,15.4597074 31.2808649,15.2686826 31.1592043,14.820881 C31.0377591,14.3728645 31.3816386,13.8373934 31.9272807,13.6250959 C32.4729229,13.4125835 33.0138279,13.6033934 33.1352731,14.0514099 C33.2567183,14.4994264 32.9128388,15.0346826 32.3671967,15.247195 M17.4684091,24.2614595 C11.4743123,24.252005 6.62016411,21.4332612 6.62016411,17.3978893 C6.62016411,17.3132281 6.6231787,17.2294264 6.62726994,17.1460545 C6.62877724,17.1183355 6.63006921,17.0908314 6.63200717,17.0635421 C6.63566775,17.0063851 6.64083563,16.9496579 6.64643417,16.8929306 C6.65418599,16.8170793 6.66301446,16.741443 6.67421154,16.6660215 C6.67528818,16.6587157 6.67614949,16.651195 6.67744146,16.6436744 C6.79802537,15.8505669 7.10702163,14.6401702 7.57342295,13.9426826 C8.69442262,12.3246661 10.6937468,11.2468479 12.9745053,11.2468479 C14.7305084,11.2468479 16.3183401,11.8867488 17.4684091,12.9187983 C18.6184781,11.8867488 20.2063097,11.2468479 21.9620975,11.2468479 C24.2430713,11.2468479 26.2423955,12.3246661 27.3631799,13.9426826 C27.8297965,14.6401702 28.1385775,15.8505669 28.2593767,16.6436744 C28.2604533,16.651195 28.26153,16.6587157 28.2623913,16.6660215 C28.2735884,16.741443 28.2826322,16.8170793 28.2901687,16.8929306 C28.2957672,16.9496579 28.3009351,17.0063851 28.304811,17.0635421 C28.3065336,17.0908314 28.3080409,17.1183355 28.3093329,17.1460545 C28.3134241,17.2294264 28.3164387,17.3132281 28.3164387,17.3978893 C28.3164387,21.4332612 23.4622905,24.252005 17.4684091,24.2614595 M3.77739852,14.820881 C3.6559533,15.2686826 3.11504835,15.4597074 2.56962151,15.247195 C2.02397933,15.0346826 1.68009987,14.4994264 1.80154509,14.0514099 C1.92299031,13.6033934 2.46367993,13.4125835 3.00932211,13.6250959 C3.55496428,13.8373934 3.89884374,14.3728645 3.77739852,14.820881 M32.33985,10.7365174 C31.4059707,10.7365174 30.5877227,11.3276413 30.1301499,12.2142198 C28.5733255,8.84539339 25.334571,5.72431901 21.3320466,4.43914545 C19.1725181,3.57921157 17.6559601,1.92874876 17.4684091,-0.00019338843 C17.280858,1.92874876 15.7643001,3.57921157 13.6045562,4.43914545 C9.60203184,5.72431901 6.36349265,8.84539339 4.80666829,12.2142198 C4.34909543,11.3276413 3.53063217,10.7365174 2.59675288,10.7365174 C1.16266572,10.7365174 -0.000107664202,12.1297736 -0.000107664202,13.8483521 C-0.000107664202,15.5669306 1.16266572,16.9599719 2.59675288,16.9599719 C3.03300823,16.9599719 3.44385482,16.8306165 3.80474523,16.6028479 C3.9281284,22.1829636 9.99522151,25.8051289 17.4684091,25.8147983 C24.9415967,25.8051289 31.0084744,22.1829636 31.1320729,16.6028479 C31.4929633,16.8306165 31.9035946,16.9599719 32.33985,16.9599719 C33.7741524,16.9599719 34.9367105,15.5669306 34.9367105,13.8483521 C34.9367105,12.1297736 33.7741524,10.7365174 32.33985,10.7365174" id="Fill-52"></path>
                                                </g>
                                            </g>
                                        </g>
                                    </g>
                                </g>
                            </g>
                        </svg>